<?xml version="1.0" encoding="utf-8"?>
<!-- Generator: Adobe Illustrator 24.2.3, SVG Export Plug-In . SVG Version: 6.00 Build 0)  -->
<svg version="1.1" id="Calque_1" xmlns="http://www.w3.org/2000/svg" xmlns:xlink="http://www.w3.org/1999/xlink" x="0px" y="0px"
	 viewBox="0 0 512 512" style="enable-background:new 0 0 512 512;" xml:space="preserve">
<style type="text/css">
	.st0{fill:#BB1112;}
</style>
<path class="st0" d="M256.5,246c-13.3,0-23.1,10.8-23.1,23.1c1.1,72.3-8.1,141.9-27.8,211.5c-3.6,10.7,1.4,31.4,22.3,31.4
	c10.5,0,20.1-6.9,23.1-17.5c13.5-47.9,30.1-125.4,29.5-224.5C280.5,256.8,269.8,246,256.5,246z M255.6,164.3
	c-62.1-0.2-104,47-103.1,101.1c0.8,47.9-3.8,95.9-13.4,142.5c-2.8,12.1,5.6,25.6,18.6,28.4c12.1,2.6,25.6-5.6,28.4-18.6
	c10.4-50.1,15.1-101.6,14.4-152.1c-0.4-26.9,19-53.4,54.4-53.2c31.4,0.5,57.2,25.4,57.6,55.5c0.9,47.1-2.8,96.3-10.6,143.5
	c-2.1,12.1,6.7,25.4,19.9,27.6c19.9,3.3,26.8-15.1,27.5-19.9C357.5,370,361.4,318,360.5,268C359.6,211.1,312.6,165.1,255.6,164.3z
	 M145,144.5c-10.4-8.4-25.4-6.9-33.9,3.4c-25.4,31.5-39.3,71.4-38.7,112c0.6,37.6-2.4,75.4-9,112.1c-2.4,12.1,6.2,25.5,19.3,27.9
	c20.1,3.5,27.1-14.9,27.1-19.4c7.1-39.9,10.5-80.6,9.7-121.4c0.5-29.8,10.1-57.8,28-80.8C156.8,167.9,155.3,152.9,145,144.5z
	 M253.5,82.2c-14.5-0.4-30,1.4-44.9,5c-12.9,2.1-20.9,15.1-17.9,28.9c3.1,12.9,15.1,20.8,28.1,17.8c12-2.5,23.3-3.8,35-3.7
	c75.4,1.1,137.6,61.5,138.9,134.6c0.5,37.9-1.4,75.1-5.6,113.6c-1.5,13.1,8,24.1,21.1,26.5c16.8,1.1,25.5-11.9,26.5-21.1
	c4.6-39.8,6.6-79.8,6-119.7C439,165.3,355.5,83.7,253.5,82.2z M506.5,203.6c-2.9-12.1-15.5-21.3-28.6-18.4
	c-12.1,2.9-21.1,15.8-18.3,28.6c4.8,21.5,4.9,37.5,4.8,61.6c-0.1,13.3,10.5,24.1,23.8,24.3c13.1,0,24.1-10.6,24.3-23.9
	C512.5,253.8,512.7,231.8,506.5,203.6z M465.5,112.9C416.8,43.5,337.1,1.2,252.2,0C182.5-0.9,118,24.9,70,73
	C23.7,119.3-1.3,181-0.3,246.6l-0.1,21.5c0.5,13.3,10.9,24.3,24.1,24.7c0.3,0.1,0.5,0.1,0.8,0.1c12.1,0,23.6-10.4,23.1-23.4
	l0.1-23.6c0.1-52.5,20-101.9,57.2-139c38.9-38.8,91.4-59.6,147.7-58.9c69.4,0.1,134.7,35.6,174.6,92.4c7.6,10.9,22.5,13.5,33.4,5.9
	C470.5,138.6,474,123.8,465.5,112.9z"/>
</svg>
