<svg id="Calque_1" data-name="Calque 1" xmlns="http://www.w3.org/2000/svg" viewBox="0 0 512.9 512.02"><defs><style>.cls-1{fill:#ededed;}</style></defs><path class="cls-1" d="M256.5,246a23,23,0,0,0-23.1,23.1,727.11,727.11,0,0,1-27.8,211.5C202,491.3,207,512,227.9,512A24,24,0,0,0,251,494.5c13.5-47.9,30.1-125.4,29.5-224.5A24,24,0,0,0,256.5,246Zm-.9-81.7c-62.1-.2-104,47-103.1,101.1a653.79,653.79,0,0,1-13.4,142.5c-2.8,12.1,5.6,25.6,18.6,28.4,12.1,2.6,25.6-5.6,28.4-18.6a703.77,703.77,0,0,0,14.4-152.1c-.4-26.9,19-53.4,54.4-53.2,31.4.5,57.2,25.4,57.6,55.5a797.73,797.73,0,0,1-10.6,143.5c-2.1,12.1,6.7,25.4,19.9,27.6,19.9,3.3,26.8-15.1,27.5-19.9A838.79,838.79,0,0,0,360.5,268C359.6,211.1,312.6,165.1,255.6,164.3ZM145,144.5a24.11,24.11,0,0,0-33.9,3.4,175.08,175.08,0,0,0-38.7,112,582.93,582.93,0,0,1-9,112.1c-2.4,12.1,6.2,25.5,19.3,27.9,20.1,3.5,27.1-14.9,27.1-19.4a623.64,623.64,0,0,0,9.7-121.4c.5-29.8,10.1-57.8,28-80.8A23.13,23.13,0,0,0,145,144.5ZM253.5,82.2a173.77,173.77,0,0,0-44.9,5c-12.9,2.1-20.9,15.1-17.9,28.9,3.1,12.9,15.1,20.8,28.1,17.8a162.12,162.12,0,0,1,35-3.7c75.4,1.1,137.6,61.5,138.9,134.6a925.25,925.25,0,0,1-5.6,113.6c-1.5,13.1,8,24.1,21.1,26.5a24.46,24.46,0,0,0,26.5-21.1,922,922,0,0,0,6-119.7C439,165.3,355.5,83.7,253.5,82.2Zm253,121.4c-2.9-12.1-15.5-21.3-28.6-18.4-12.1,2.9-21.1,15.8-18.3,28.6,4.8,21.5,4.9,37.5,4.8,61.6a24.09,24.09,0,0,0,23.8,24.3,24.37,24.37,0,0,0,24.3-23.9C512.5,253.8,512.7,231.8,506.5,203.6Zm-41-90.7A265.92,265.92,0,0,0,252.2,0C182.5-.9,118,24.9,70,73A238.47,238.47,0,0,0-.3,246.6l-.1,21.5c.5,13.3,10.9,24.3,24.1,24.7a2.2,2.2,0,0,0,.8.1c12.1,0,23.6-10.4,23.1-23.4l.1-23.6c.1-52.5,20-101.9,57.2-139C143.8,68.1,196.3,47.3,252.6,48c69.4.1,134.7,35.6,174.6,92.4a23.93,23.93,0,0,0,33.4,5.9C470.5,138.6,474,123.8,465.5,112.9Z" transform="translate(0.4 0.02)"/></svg>